#!OML:ASF H:\Dans Jumps\Project 1\Capture day 1\Session 1\subject.ASF
:FULLY-SPECIFIED
:DEGREES
362
root 0.594213 17.4542 -2.3858 3.76094 -0.340624 -0.791386
lowerback 0.913031 -1.09329 -0.699411
upperback 2.92405 -1.5004 2.21084
thorax 2.56778 -0.795994 2.64384
lowerneck -10.616 0.243825 -1.77194
upperneck 35.7187 0.810508 -0.125924
head 13.9018 0.0866006 0.37976
rclavicle -4.37326e-015 -5.1684e-015
rhumerus -24.9216 -13.8427 -80.6017
rradius 25.8436
rwrist 32.3951
rhand -22.5659 -28.2459
rfingers 7.12502
rthumb 3.86234 -58.1907
lclavicle -4.37326e-015 -5.1684e-015
lhumerus -17.7769 1.92399 86.3457
lradius 20.4912
lwrist 12.141
lhand -28.1111 -11.0086
lfingers 7.12502
lthumb -1.49317 18.966
rfemur -20.4667 1.32167 18.4862
rtibia 34.0812
rfoot -14.2424 -1.70906
rtoes 10.212
lfemur -20.5281 6.35193 -18.3421
ltibia 38.4373
lfoot -12.5317 0.895211
ltoes -2.85083
363
root 0.589456 17.5437 -2.34391 4.38198 -0.184882 -0.73674
lowerback 0.576503 -1.06771 -0.792641
upperback 2.82392 -1.46461 2.17666
thorax 2.65348 -0.779538 2.65591
lowerneck -10.4999 0.152305 -1.78678
upperneck 35.3356 0.63739 -0.0196793
head 13.7036 0.0281825 0.39862
rclavicle 8.15017e-015 -1.66979e-014
rhumerus -25.0707 -13.4089 -80.7523
rradius 26.4316
rwrist 31.4928
rhand -22.5755 -28.1229
rfingers 7.12502
rthumb 3.85306 -58.0678
lclavicle 8.15017e-015 -1.66979e-014
lhumerus -18.2665 1.23739 86.5206
lradius 21.2167
lwrist 13.4566
lhand -28.0394 -11.0648
lfingers 7.12502
lthumb -1.42399 18.9102
rfemur -20.1729 1.40422 18.4057
rtibia 32.5962
rfoot -13.4498 -1.70919
rtoes 10.7926
lfemur -20.3657 6.03607 -18.4036
ltibia 37.0154
lfoot -11.6352 0.656245
ltoes -2.23125
364
root 0.585667 17.6252 -2.30401 4.97157 -0.0300461 -0.698047
lowerback 0.289201 -1.04698 -0.862925
upperback 2.72578 -1.43487 2.14671
thorax 2.71338 -0.765458 2.66054
lowerneck -10.4028 0.0749609 -1.78995
upperneck 34.9459 0.494258 0.0575942
head 13.5091 -0.0200421 0.408213
rclavicle -1.49089e-015 -1.59028e-014
rhumerus -25.2487 -12.8752 -80.908
rradius 27.0558
rwrist 30.6018
rhand -22.5765 -28.0065
rfingers 7.12502
rthumb 3.85211 -57.9514
lclavicle -1.49089e-015 -1.59028e-014
lhumerus -18.7634 0.639291 86.6653
lradius 21.8924
lwrist 14.9568
lhand -27.9814 -11.1406
lfingers 7.12502
lthumb -1.36792 18.8347
rfemur -19.9203 1.39858 18.3546
rtibia 31.25
rfoot -12.6886 -1.69607
rtoes 11.2675
lfemur -20.255 5.79957 -18.4536
ltibia 35.7344
lfoot -10.7695 0.441922
ltoes -1.46776
365
root 0.583128 17.6992 -2.26592 5.52729 0.114225 -0.697271
lowerback 0.0468902 -1.02554 -0.882828
upperback 2.63163 -1.40467 2.12578
thorax 2.75099 -0.749939 2.64717
lowerneck -10.3395 0.0115233 -1.78101
upperneck 34.5806 0.380282 0.107085
head 13.335 -0.0583263 0.409012
rclavicle -8.05078e-015 3.57812e-015
rhumerus -25.4382 -12.2476 -81.0663
rradius 27.6877
rwrist 29.791
rhand -22.5769 -27.9023
rfingers 7.12502
rthumb 3.85169 -57.8472
lclavicle -8.05078e-015 3.57812e-015
lhumerus -19.2539 0.126742 86.7817
lradius 22.4898
lwrist 16.4635
lhand -27.9304 -11.2678
lfingers 7.12502
lthumb -1.31872 18.7079
rfemur -19.7021 1.30813 18.3588
rtibia 30.0355
rfoot -11.9728 -1.65258
rtoes 11.6822
lfemur -20.1931 5.63813 -18.4672
ltibia 34.5954
lfoot -9.958 0.272676
ltoes -0.557113
366
root 0.5818 17.7666 -2.22934 6.05107 0.23708 -0.737684
lowerback -0.161618 -0.997161 -0.85008
upperback 2.54452 -1.36622 2.11431
thorax 2.77536 -0.729173 2.61491
lowerneck -10.3177 -0.039764 -1.76594
upperneck 34.2563 0.291494 0.136594
head 13.1895 -0.0881024 0.404692
rclavicle 3.37934e-015 -2.26615e-014
rhumerus -25.6182 -11.5297 -81.2267
rradius 28.3044
rwrist 29.0853
rhand -22.5839 -27.814
rfingers 7.12502
rthumb 3.84491 -57.7591
lclavicle 3.37934e-015 -2.26615e-014
lhumerus -19.7128 -0.310633 86.8713
lradius 22.9653
lwrist 17.7941
lhand -27.8736 -11.4064
lfingers 7.12502
lthumb -1.2638 18.5696
rfemur -19.5101 1.15589 18.4193
rtibia 28.933
rfoot -11.3041 -1.56368
rtoes 12.1635
lfemur -20.1688 5.53834 -18.4395
ltibia 33.5705
lfoot -9.21058 0.169791
ltoes 0.479158
367
root 0.581467 17.8276 -2.19372 6.5365 0.339338 -0.816945
lowerback -0.335885 -0.960497 -0.768903
upperback 2.46376 -1.3179 2.1114
thorax 2.7856 -0.702445 2.56524
lowerneck -10.3232 -0.081669 -1.75614
upperneck 33.9757 0.22159 0.158864
head 13.0699 -0.111781 0.401339
rclavicle 8.54774e-015 -1.07344e-014
rhumerus -25.782 -10.7525 -81.383
rradius 28.8841
rwrist 28.5098
rhand -22.6059 -27.7421
rfingers 7.12502
rthumb 3.82372 -57.6876
lclavicle 8.54774e-015 -1.07344e-014
lhumerus -20.1325 -0.688124 86.9375
lradius 23.2849
lwrist 18.8045
lhand -27.8317 -11.5383
lfingers 7.12502
lthumb -1.22332 18.438
rfemur -19.3221 0.961963 18.5324
rtibia 27.9186
rfoot -10.6887 -1.4341
rtoes 12.7234
lfemur -20.1509 5.48276 -18.3717
ltibia 32.6169
lfoot -8.53689 0.146573
ltoes 1.55175
368
root 0.58144 17.8821 -2.15904 6.97988 0.421451 -0.93439
lowerback -0.472049 -0.912283 -0.646212
upperback 2.38773 -1.25531 2.11685
thorax 2.77797 -0.667723 2.50204
lowerneck -10.3664 -0.118906 -1.74628
upperneck 33.7541 0.163206 0.171579
head 12.9846 -0.132185 0.396101
rclavicle 5.46658e-015 9.93923e-015
rhumerus -25.9292 -9.94651 -81.5262
rradius 29.4162
rwrist 28.0778
rhand -22.6409 -27.6971
rfingers 7.12502
rthumb 3.78984 -57.6431
lclavicle 5.46658e-015 9.93923e-015
lhumerus -20.5063 -1.01879 86.9818
lradius 23.438
lwrist 19.4187
lhand -27.8177 -11.5992
lfingers 7.12502
lthumb -1.20983 18.3771
rfemur -19.1258 0.7614 18.6963
rtibia 26.9718
rfoot -10.1256 -1.28987
rtoes 13.3237
lfemur -20.1156 5.45984 -18.263
ltibia 31.6913
lfoot -7.93978 0.198712
ltoes 2.57463
369
root 0.581099 17.9295 -2.12455 7.37422 0.492325 -1.06051
lowerback -0.575956 -0.857639 -0.520275
upperback 2.32082 -1.18448 2.12406
thorax 2.76144 -0.628934 2.43967
lowerneck -10.4317 -0.152677 -1.7422
upperneck 33.582 0.113321 0.180976
head 12.9256 -0.150433 0.391943
rclavicle -6.4605e-015 -3.97569e-016
rhumerus -26.0467 -9.15297 -81.654
rradius 29.8818
rwrist 27.7733
rhand -22.6959 -27.6745
rfingers 7.12502
rthumb 3.73674 -57.6215
lclavicle -6.4605e-015 -3.97569e-016
lhumerus -20.839 -1.29031 87.0028
lradius 23.435
lwrist 19.608
lhand -27.8138 -11.5781
lfingers 7.12502
lthumb -1.20604 18.3982
rfemur -18.9044 0.565096 18.8775
rtibia 26.0784
rfoot -9.62128 -1.1507
rtoes 13.9099
lfemur -20.0335 5.45596 -18.1457
ltibia 30.765
lfoot -7.42299 0.301958
ltoes 3.46616
370
root 0.579803 17.9694 -2.08952 7.71791 0.559573 -1.17109
lowerback -0.648871 -0.80083 -0.423809
upperback 2.25877 -1.11014 2.12827
thorax 2.73315 -0.589058 2.39141
lowerneck -10.5152 -0.184709 -1.73849
upperneck 33.4628 0.0689059 0.183878
head 12.8933 -0.167559 0.386232
rclavicle 2.68359e-015 2.38542e-015
rhumerus -26.1422 -8.3992 -81.7617
rradius 30.2816
rwrist 27.5662
rhand -22.7532 -27.6777
rfingers 7.12502
rthumb 3.68139 -57.6256
lclavicle 2.68359e-015 2.38542e-015
lhumerus -21.1442 -1.499 86.9985
lradius 23.2887
lwrist 19.4263
lhand -27.817 -11.5059
lfingers 7.12502
lthumb -1.20914 18.4705
rfemur -18.6523 0.378835 19.0489
rtibia 25.2326
rfoot -9.18826 -1.03686
rtoes 14.4323
lfemur -19.8859 5.46179 -18.0463
ltibia 29.8281
lfoot -6.99323 0.419845
ltoes 4.15293
